<?xml version="1.0" encoding="utf-8"?>
<svg
	xmlns="http://www.w3.org/2000/svg"
	viewBox="0.0015 0.003 1414.02 1349.9233"
	width="1414.02px"
	height="1349.92px"
	preserveAspectRatio="none">
	<path
		d="M 1282.52 1199.07 L 1283.38 1198.18 L 1283.64 1197.91 L 1284.32 1197.28 L 1284.53 1197.1 L 1284.93 1196.76 L 1285.13 1196.59 L 1285.19 1196.55 L 1285.25 1196.5 L 1285.3 1196.46 L 1285.67 1196.22 C 1287.01 1195.41 1287.82 1194.97 1288.27 1194.68 C 1288.35 1194.63 1288.4 1194.6 1288.45 1194.59 L 1288.44 1194.29 L 1288.72 1193.88 C 1289.1 1193.59 1288.82 1192.87 1288.31 1189.32 L 1288.26 1188.75 L 1288.22 1187.87 C 1293.96 1039.6 1293.96 889.776 1288.26 741.507 L 1288.25 741.455 L 1288.24 740.855 C 1288.64 735.643 1289.15 733.925 1288.83 733.802 L 1288.8 733.769 L 1288.72 733.663 L 1288.57 733.309 L 1288.51 733.152 C 1288.14 732.922 1287.63 732.612 1286.95 732.184 L 1286.87 732.136 L 1286.73 732.04 L 1286.36 731.803 L 1285.19 730.812 L 1284.19 729.887 L 1283.86 729.575 L 1283.76 729.486 L 1283.69 729.412 L 1283.66 729.387 L 1283.59 729.322 L 1283.46 729.203 L 1282.89 728.504 C 1281.32 726.592 1280.42 725.356 1279.86 724.639 C 1279.82 724.578 1279.77 724.519 1279.73 724.461 L 1279.94 724.448 L 1279.65 724.338 C 1279.48 724.073 1279.37 723.849 1279.32 723.716 L 1279.52 724.289 L 1279.27 724.191 L 1278.92 724.054 L 1278.68 723.965 L 1278.08 723.531 L 1275.47 724.472 L 1274.88 724.545 L 1273.69 724.611 C 1125.42 718.873 975.36 718.882 827.072 724.584 C 822.175 724.364 819.777 724.07 819.002 724.547 L 818.746 724.651 L 818.61 724.7 L 818.458 724.752 L 818.448 724.755 L 818.427 724.803 L 818.416 724.805 L 818.215 725.183 L 818.007 725.541 L 817.975 725.595 L 817.926 725.677 L 817.89 725.737 L 817.86 725.788 L 817.831 725.837 L 817.038 726.865 L 816.462 727.565 L 815.903 728.227 L 815.453 728.767 L 813.982 730.078 C 812.159 731.563 810.702 732.674 809.698 733.419 L 809.654 733.246 L 809.686 733.381 L 809.692 733.423 C 809.495 733.57 809.315 733.702 809.153 733.82 L 809.693 733.426 L 809.94 734.96 L 810.068 736.034 L 810.154 736.786 L 810.163 736.866 L 810.207 737.234 L 810.163 740.021 L 809.998 741.154 L 809.915 741.447 C 809.563 742.625 809.364 743.203 809.328 743.57 C 809.304 743.814 809.265 743.753 809.57 744.096 L 809.632 744.166 L 809.683 744.268 C 810.362 745.633 812.203 747.419 816.112 751.318 L 816.351 751.565 L 816.766 752 L 816.806 752.042 L 816.888 752.13 L 817.57 752.998 C 829.893 770.658 869.322 788.055 906.28 811.48 C 925.297 823.803 946.62 841.188 959.04 857.583 L 959.11 857.672 L 959.28 857.9 L 959.47 858.22 C 965.63 868.564 972.85 887.861 974.26 900.814 L 974.32 901.714 L 974.36 902.954 L 974.37 903.124 L 974.38 903.531 L 974.38 903.628 L 974.33 904.697 C 973.16 916.973 966.58 937.753 958.52 950.463 L 958.37 950.683 L 957.94 951.273 C 867.095 1059.18 700.526 1093.16 575.055 1108.29 C 366.415 1124.65 201.921 978.333 95.101 846.438 C 63.481 801.156 57.011 751.278 38.853 724.906 C 38.476 724.245 38.332 724.001 38.14 723.668 C -20 718.211 -64.289 720.812 -119.18 723.359 C -119.18 723.359 -119.18 723.359 -119.18 723.359 L -118.39 723.322 L -118.04 723.892 L -118.71 724.208 C -39.968 867.801 3.884 1023.81 119.271 1110.44 C 326.891 1281.57 596.512 1313.43 834.724 1214.75 C 911.493 1190.06 976.98 1074.75 1092.14 1055.03 L 1093.38 1054.87 L 1094.78 1054.73 L 1095.28 1054.68 L 1095.98 1054.61 L 1100.02 1054.68 L 1101.53 1054.86 C 1122.23 1059.3 1153.19 1080.72 1172.29 1102.35 C 1188.73 1121.66 1206.78 1144.96 1225.44 1164.62 C 1244.55 1184.99 1256.24 1197.55 1269.03 1200.6 L 1269.16 1200.64 L 1269.4 1200.71 L 1269.95 1200.9 C 1273.05 1202.18 1274.12 1202.63 1275.15 1203.06 L 1276.24 1202.74 L 1278.59 1202.43 C 1279.75 1202.38 1279.71 1202.37 1279.99 1202.36 C 1280.31 1201.91 1280.44 1201.7 1281.59 1200.16 L 1282.52 1199.07 Z M 817.04 722.967 L 817.045 722.967 L 817.156 724.964 C 817.153 724.964 817.149 724.964 817.147 724.965 L 817.04 722.967 Z M -119.74 722.338 C -119.67 722.458 -119.61 722.578 -119.54 722.698 L -121.29 723.663 L -121.49 723.303 L -119.74 722.338 Z M -111.48 -8.534 L -112.33 -7.634 L -112.6 -7.374 L -113.28 -6.744 L -113.49 -6.554 L -113.89 -6.214 L -114.09 -6.054 L -114.15 -6.004 L -114.2 -5.954 L -114.25 -5.914 L -114.63 -5.684 C -115.96 -4.864 -116.78 -4.424 -117.22 -4.134 C -117.3 -4.084 -117.36 -4.054 -117.4 -4.044 L -117.4 -3.7439999999999998 L -117.67 -3.344 C -118.05 -3.054 -117.78 -2.324 -117.27 1.226 L -117.21 1.786 L -117.18 2.676 C -122.92 150.946 -122.91 300.772 -117.21 449.042 L -117.21 449.092 L -117.2 449.692 C -117.6 454.902 -118.11 456.622 -117.78 456.742 L -117.76 456.772 L -117.68 456.882 L -117.53 457.232 L -117.47 457.392 C -117.1 457.622 -116.59 457.932 -115.91 458.362 L -115.83 458.412 L -115.68 458.502 L -115.32 458.742 L -114.15 459.732 L -113.15 460.662 L -112.81 460.972 L -112.72 461.062 L -112.64 461.132 L -112.62 461.162 L -112.55 461.222 L -112.42 461.342 L -111.85 462.042 C -110.27 463.952 -109.37 465.192 -108.82 465.902 C -108.77 465.962 -108.73 466.022 -108.69 466.082 L -108.89 466.092 L -108.61 466.212 C -108.44 466.472 -108.32 466.692 -108.28 466.832 L -108.48 466.252 L -108.22 466.352 L -107.87 466.492 L -107.64 466.582 L -107.03 467.012 L -104.43 466.072 L -103.83 466.002 L -102.65 465.932 C 45.624 471.672 195.684 471.662 343.974 465.962 C 348.874 466.182 351.264 466.472 352.044 466.002 L 352.294 465.892 L 352.434 465.842 L 352.584 465.792 L 352.594 465.792 L 352.614 465.742 L 352.624 465.742 L 352.834 465.362 L 353.034 465.002 L 353.074 464.952 L 353.114 464.872 L 353.154 464.812 L 353.184 464.762 L 353.214 464.712 L 354.004 463.682 L 354.584 462.982 L 355.144 462.322 L 355.594 461.782 L 357.064 460.462 C 358.884 458.982 360.344 457.872 361.344 457.122 L 361.394 457.302 L 361.354 457.162 L 361.354 457.122 C 361.554 456.972 361.734 456.842 361.894 456.722 L 361.354 457.122 L 361.104 455.582 L 360.974 454.512 L 360.894 453.762 L 360.884 453.682 L 360.834 453.312 L 360.884 450.522 L 361.044 449.392 L 361.134 449.102 C 361.484 447.922 361.684 447.342 361.714 446.972 C 361.744 446.732 361.784 446.792 361.474 446.452 L 361.414 446.382 L 361.364 446.272 C 360.684 444.912 358.844 443.122 354.934 439.222 L 354.694 438.982 L 354.274 438.542 L 354.244 438.502 L 354.154 438.412 L 353.474 437.542 C 341.154 419.892 301.724 402.492 264.764 379.062 C 245.744 366.742 224.424 349.352 212.004 332.962 L 211.934 332.872 L 211.764 332.642 L 211.574 332.322 C 205.414 321.982 198.194 302.682 196.784 289.732 L 196.724 288.832 L 196.684 287.592 L 196.674 287.422 L 196.664 287.012 L 196.664 286.912 L 196.714 285.852 C 197.884 273.582 204.464 252.792 212.524 240.082 L 212.674 239.862 L 213.104 239.272 C 303.954 131.366 470.524 97.396 595.994 82.256 C 804.624 65.896 969.124 212.212 1075.92 344.102 C 1107.52 389.392 1114.02 439.272 1132.22 465.642 C 1132.52 466.302 1132.72 466.542 1132.92 466.882 C 1191.02 472.332 1235.32 469.732 1290.22 467.182 C 1290.22 467.182 1290.22 467.182 1290.22 467.182 L 1289.42 467.222 L 1289.12 466.652 L 1289.72 466.342 C 1211.02 322.742 1167.12 166.736 1051.72 80.106 C 844.124 -91.034 574.534 -122.88 336.324 -24.204 C 259.554 0.48600000000000004 194.064 115.796 78.904 135.516 L 77.664 135.676 L 76.274 135.816 L 75.764 135.866 L 75.064 135.936 L 71.034 135.866 L 69.524 135.686 C 48.824 131.246 17.854 109.826 -1.246 88.196 C -17.686 68.886 -35.736 45.576 -54.396 25.926 C -73.506 5.556 -85.196 -7.014 -97.986 -10.064 L -98.116 -10.094 L -98.356 -10.164 L -98.906 -10.354 C -102.01 -11.634 -103.08 -12.084 -104.1 -12.514 L -105.2 -12.194 L -107.55 -11.884 C -108.71 -11.834 -108.67 -11.834 -108.94 -11.824 C -109.26 -11.364 -109.39 -11.164 -110.55 -9.624 L -111.48 -8.534 Z M 354.004 467.582 L 353.884 465.582 C 353.894 465.582 353.894 465.582 353.894 465.582 L 354.004 467.582 Z M 1290.82 468.212 C 1290.72 468.092 1290.62 467.962 1290.62 467.842 L 1292.32 466.882 L 1292.52 467.242 L 1290.82 468.212 Z"
		transform="matrix(0.9999999999999999, 0, 0, -0.9999999999999999, 121.49153318243543, 1270.2373236155108)"
		fill="#bbb"/>
</svg>